<svg width="55" height="55" fill="none" xmlns="http://www.w3.org/2000/svg"><g clip-path="url(#clip0)"><path d="M53.389 25.115h-4.582a6.749 6.749 0 001.015-3.566c0-3.549-2.737-6.468-6.21-6.763a6.744 6.744 0 001.033-3.593 6.797 6.797 0 00-6.79-6.789 6.775 6.775 0 00-5.177 2.405 6.776 6.776 0 00-10.356 0 6.775 6.775 0 00-5.177-2.405 6.797 6.797 0 00-6.79 6.79c0 1.318.38 2.55 1.033 3.592-3.473.295-6.21 3.214-6.21 6.763 0 1.308.372 2.529 1.016 3.566H1.61c-.89 0-1.611.722-1.611 1.612 0 4.917 1.314 9.743 3.8 13.956a27.653 27.653 0 009.971 9.876c.245.141.523.216.806.216h25.846c.283 0 .56-.074.806-.216a27.65 27.65 0 009.97-9.876A27.474 27.474 0 0055 26.727c0-.89-.721-1.612-1.611-1.612zm-6.79-3.566a3.57 3.57 0 01-3.566 3.566 3.57 3.57 0 01-3.566-3.566 3.57 3.57 0 013.566-3.567A3.57 3.57 0 0146.6 21.55zm-27.843 0a3.57 3.57 0 013.566-3.567 3.57 3.57 0 013.567 3.567 3.57 3.57 0 01-3.567 3.566 3.57 3.57 0 01-3.566-3.566zm10.355 0a3.57 3.57 0 013.567-3.567 3.57 3.57 0 013.566 3.567 3.57 3.57 0 01-3.566 3.566 3.57 3.57 0 01-3.567-3.566zm8.744-13.922a3.57 3.57 0 013.567 3.566 3.57 3.57 0 01-3.567 3.567 3.57 3.57 0 01-3.566-3.567 3.57 3.57 0 013.566-3.566zm-10.355 0a3.57 3.57 0 013.566 3.566A3.57 3.57 0 0127.5 14.76a3.57 3.57 0 01-3.566-3.567A3.57 3.57 0 0127.5 7.627zm-10.355 0a3.57 3.57 0 013.566 3.566 3.57 3.57 0 01-3.566 3.567 3.57 3.57 0 01-3.567-3.567 3.57 3.57 0 013.567-3.566zM8.4 21.549a3.57 3.57 0 013.567-3.567 3.57 3.57 0 013.566 3.567 3.57 3.57 0 01-3.566 3.566A3.57 3.57 0 018.4 21.55zm31.584 26.003H15.016a24.38 24.38 0 01-11.74-19.214h48.447a24.379 24.379 0 01-11.739 19.214z" fill="#4DBCF2"/></g><defs><clipPath id="clip0"><path fill="#fff" d="M0 0h55v55H0z"/></clipPath></defs></svg>