<svg width="55" height="55" fill="none" xmlns="http://www.w3.org/2000/svg"><g clip-path="url(#clip0)" fill="#4DBCF2"><path d="M29.632 12.294L27.218 9.88c-2.977-2.978-7.823-2.978-10.8 0L9.88 16.416c-2.978 2.978-2.978 7.824 0 10.802l2.414 2.414a7.615 7.615 0 005.4 2.234 7.61 7.61 0 005.401-2.234l6.536-6.537c2.978-2.977 2.978-7.823 0-10.8zm-2.498 8.304l-6.536 6.536a4.11 4.11 0 01-5.805 0l-2.414-2.414a4.11 4.11 0 010-5.805l6.536-6.536c.8-.8 1.851-1.2 2.902-1.2 1.052 0 2.103.4 2.903 1.2l2.414 2.414a4.11 4.11 0 010 5.805z"/><path d="M38.995 9.704L29.81.518a1.764 1.764 0 00-2.498 0L25.898 1.93a8.207 8.207 0 00-2.417 5.842c0 2.209.858 4.284 2.417 5.842a8.236 8.236 0 005.842 2.416 8.238 8.238 0 005.843-2.416l1.412-1.413c.69-.69.69-1.809 0-2.498zm-3.911 1.413a4.734 4.734 0 01-6.688 0 4.693 4.693 0 01-1.382-3.344c0-1.266.49-2.453 1.382-3.344l.164-.164 6.688 6.687-.164.165zM13.616 25.898c-3.22-3.221-8.463-3.222-11.685 0L.518 27.31c-.69.69-.69 1.808 0 2.498l9.186 9.186a1.762 1.762 0 002.498 0l1.414-1.412c3.22-3.221 3.221-8.463 0-11.685zm-2.499 9.186l-.164.164-6.688-6.688.164-.164a4.734 4.734 0 016.688 0 4.735 4.735 0 010 6.688z"/><path d="M30.398 9.115a1.766 1.766 0 00-2.498 0l-1.943 1.943a1.766 1.766 0 102.498 2.498l1.943-1.943c.69-.69.69-1.808 0-2.498zm-16.96 16.959a1.767 1.767 0 00-2.498 0L9.114 27.9a1.767 1.767 0 002.499 2.498l1.825-1.826c.69-.69.69-1.808 0-2.498zm31.682 1.708l-2.414-2.415c-2.978-2.978-7.823-2.978-10.802 0l-6.536 6.537c-2.979 2.977-2.979 7.823 0 10.801l2.414 2.415a7.612 7.612 0 005.4 2.233 7.614 7.614 0 005.402-2.233l6.536-6.537c2.979-2.978 2.979-7.824 0-10.801zm-2.498 8.303l-6.537 6.536a4.11 4.11 0 01-5.805 0l-2.414-2.414a4.11 4.11 0 010-5.805l6.536-6.536c.8-.8 1.852-1.2 2.903-1.2 1.05 0 2.102.4 2.902 1.2l2.414 2.414a4.11 4.11 0 010 5.805z"/><path d="M54.483 25.19l-9.188-9.186c-.662-.662-1.836-.662-2.498 0l-1.412 1.413a8.206 8.206 0 00-2.417 5.843c0 2.209.859 4.284 2.417 5.842a8.234 8.234 0 005.842 2.416 8.235 8.235 0 005.842-2.416l1.413-1.413a1.767 1.767 0 000-2.498zm-3.912 1.414a4.734 4.734 0 01-6.688 0 4.693 4.693 0 01-1.382-3.344 4.69 4.69 0 011.383-3.344l.163-.164 6.688 6.688-.164.164zM29.102 41.385a8.206 8.206 0 00-5.842-2.417c-2.21 0-4.284.858-5.842 2.417l-1.413 1.412a1.766 1.766 0 000 2.498l9.186 9.187a1.768 1.768 0 002.499 0l1.412-1.413c3.222-3.222 3.222-8.463 0-11.684zm-2.498 9.186l-.164.164-6.688-6.688.164-.164a4.693 4.693 0 013.344-1.382c1.265 0 2.453.49 3.344 1.382a4.735 4.735 0 010 6.688z"/><path d="M45.885 24.602a1.766 1.766 0 00-2.498 0l-1.943 1.943a1.766 1.766 0 102.498 2.499l1.943-1.943c.69-.69.69-1.81 0-2.499zm-16.96 16.96a1.766 1.766 0 00-2.498 0l-1.825 1.825a1.767 1.767 0 002.497 2.498l1.826-1.825c.69-.69.69-1.808 0-2.498z"/></g><defs><clipPath id="clip0"><path fill="#fff" d="M0 0h55v55H0z"/></clipPath></defs></svg>