<svg width="50" height="50" fill="none" xmlns="http://www.w3.org/2000/svg"><g opacity=".8" clip-path="url(#clip0)" fill="#45B0E4"><path d="M40.595 14.777h-4.802C38.156 7.652 32.678.042 25.174.003 17.514-.172 11.84 7.506 14.24 14.777H9.436a6.097 6.097 0 00-6.09 6.09 6.098 6.098 0 006.09 6.091h4.48l-2.52 15.732c-.643 3.792 2.412 7.35 6.25 7.31a6.281 6.281 0 006.09-4.73l1.28-4.94 1.28 4.94A6.28 6.28 0 0032.385 50c3.838.039 6.893-3.517 6.25-7.31l-2.52-15.732h4.48c8.08-.334 8.077-11.848 0-12.18zM6.28 20.867a3.16 3.16 0 013.156-3.156h.52v6.313h-.52a3.16 3.16 0 01-3.156-3.156zm10.813 26.154c-1.969-.305-3.21-2.265-2.748-4.184h6.99l-.44 1.698a3.361 3.361 0 01-3.802 2.486zm18.046-1.353c-1.648 2.3-5.31 1.621-6.003-1.133l-.44-1.698h6.991c.215.983.057 2.013-.548 2.83zm.078-5.765h-7.28l-1.771-6.832h-2.3l-1.77 6.832h-7.282l2.543-15.879H12.89v-6.313h6.138c-1.23-2.127-2.426-3.797-2.394-6.392-.095-4.549 3.95-8.546 8.501-8.382 4.353-.028 8.238 3.807 8.262 8.16.095 2.712-1.105 4.401-2.391 6.614h6.627v6.313h-4.957l2.542 15.88zm5.378-15.879h-.03v-6.313c4.21.14 4.236 6.136.03 6.313z"/><path d="M22.962 26.016h4.108v2.934h-4.108v-2.934zm0-5.868h4.108v2.934h-4.108v-2.934zm2.054-7.335a1.469 1.469 0 01-1.467-1.467h-2.934c.242 5.84 8.562 5.836 8.802 0h-2.934c0 .81-.658 1.467-1.467 1.467z"/></g><defs><clipPath id="clip0"><path fill="#fff" d="M0 0h50v50H0z"/></clipPath></defs></svg>