<svg width="50" height="50" fill="none" xmlns="http://www.w3.org/2000/svg"><path d="M22.996 32.693c.264-.521.455-1.06.563-1.599.29-1.452-.058-2.8-.955-3.697-.898-.898-2.246-1.246-3.699-.956a6.27 6.27 0 00-1.598.563c-.674-2.062-2.204-3.469-4.026-3.469-1.822 0-3.352 1.407-4.026 3.469a6.271 6.271 0 00-1.598-.563c-1.453-.29-2.8.058-3.698.955-.897.898-1.246 2.246-.955 3.698.107.537.298 1.075.56 1.595-.563.18-1.09.425-1.559.728C.731 34.242 0 35.445 0 36.72c0 1.273.73 2.477 2.005 3.301a6.55 6.55 0 001.56.728 6.291 6.291 0 00-.561 1.595c-.291 1.452.057 2.8.955 3.698.897.898 2.246 1.246 3.698.955a6.287 6.287 0 001.595-.56c.18.564.425 1.09.728 1.559.824 1.273 2.027 2.004 3.3 2.004s2.477-.73 3.302-2.005a6.58 6.58 0 00.728-1.56c.52.263 1.058.454 1.595.561 1.452.29 2.8-.057 3.698-.955.897-.898 1.245-2.246.955-3.698a6.27 6.27 0 00-.563-1.598c2.062-.674 3.469-2.204 3.469-4.026 0-1.822-1.407-3.352-3.469-4.026zm-2.385 5.49c-.025 0-.05-.003-.076-.005-.85-.078-1.388.33-1.62.888-.255.619-.094 1.356.634 1.85.59.608 1.003 1.334 1.137 2.001.094.469.036.862-.154 1.052-.19.19-.584.248-1.052.154-.667-.133-1.393-.546-2.001-1.136a2.312 2.312 0 00-.201-.26 1.465 1.465 0 00-2.552 1.054c.007.14.019.222.02.262 0 1.756-.875 3.027-1.465 3.027-.59 0-1.465-1.27-1.465-3.021.002-.043.014-.14.021-.268a1.464 1.464 0 00-.904-1.428c-.622-.257-1.358-.09-1.849.634-.608.59-1.334 1.003-2.001 1.136-.469.094-.862.037-1.052-.154-.19-.19-.248-.583-.154-1.052.133-.667.546-1.393 1.137-2.001.72-.488.893-1.222.633-1.85a1.467 1.467 0 00-1.428-.903c-.123.006-.23.02-.262.02-1.756 0-3.027-.874-3.027-1.464s1.27-1.465 3.021-1.465c.042.001.136.014.268.02.618.03 1.191-.33 1.428-.903.259-.626.087-1.36-.634-1.85-.59-.607-1.003-1.333-1.136-2.001-.094-.469-.037-.862.154-1.052.19-.19.583-.247 1.051-.154.668.134 1.394.546 2.002 1.137.043.064.11.157.201.26a1.466 1.466 0 002.552-1.054c-.007-.141-.02-.223-.02-.262 0-1.789.867-2.93 1.464-2.93.906 0 1.557 1.93 1.459 3a5.174 5.174 0 00-.014.191c-.032.62.33 1.192.903 1.428.62.256 1.356.093 1.85-.633.608-.59 1.333-1.003 2.001-1.137.469-.094.862-.036 1.052.154.19.19.248.583.154 1.052-.134.668-.546 1.394-1.136 2.001-.721.489-.894 1.223-.634 1.85.236.573.811.934 1.427.904.124-.007.23-.02.262-.021 1.789 0 2.93.867 2.93 1.464 0 .598-1.141 1.466-2.924 1.466z" fill="#6AB9E0"/><path d="M13.281 32.324a4.4 4.4 0 00-4.394 4.395 4.4 4.4 0 004.394 4.394 4.4 4.4 0 004.395-4.394 4.4 4.4 0 00-4.395-4.395zm0 5.86a1.467 1.467 0 01-1.465-1.465c0-.808.658-1.465 1.465-1.465.808 0 1.465.657 1.465 1.465 0 .807-.657 1.465-1.465 1.465zm18.675-15.188c.52.264 1.06.455 1.598.563 1.452.29 2.8-.058 3.698-.955.898-.898 1.246-2.246.955-3.699a6.267 6.267 0 00-.562-1.598c2.061-.674 3.468-2.204 3.468-4.026 0-1.822-1.407-3.352-3.468-4.026.264-.52.455-1.06.562-1.598.29-1.452-.058-2.8-.955-3.698-.898-.898-2.246-1.246-3.698-.955a6.281 6.281 0 00-1.595.56 6.551 6.551 0 00-.728-1.559C30.407.731 29.204 0 27.93 0s-2.478.73-3.302 2.005a6.536 6.536 0 00-.728 1.56 6.267 6.267 0 00-1.594-.561c-1.453-.291-2.801.057-3.699.955-.897.897-1.245 2.246-.955 3.698a6.29 6.29 0 00.563 1.598c-2.062.674-3.469 2.204-3.469 4.026 0 1.822 1.407 3.352 3.469 4.026a6.27 6.27 0 00-.563 1.598c-.29 1.453.058 2.8.955 3.699.898.897 2.246 1.245 3.698.955a6.27 6.27 0 001.599-.563c.674 2.062 2.204 3.469 4.026 3.469 1.822 0 3.352-1.407 4.026-3.469zm-2.582-2.653c.007.141.019.223.02.262 0 1.789-.867 2.93-1.464 2.93-.906 0-1.557-1.93-1.46-3 .007-.063.012-.127.015-.192.073-1.428-1.798-2.203-2.752-.794-.608.59-1.334 1.003-2.002 1.137-.469.094-.862.036-1.052-.154-.19-.19-.248-.584-.154-1.052.134-.668.546-1.393 1.137-2.002.712-.483.897-1.213.634-1.85a1.468 1.468 0 00-1.428-.902c-.124.006-.23.019-.262.02-1.789 0-2.93-.868-2.93-1.465 0-.88 1.886-1.56 3-1.459.063.006.127.012.192.015a1.465 1.465 0 001.055-2.551 2.281 2.281 0 00-.261-.202c-.59-.608-1.003-1.334-1.137-2.002-.094-.468-.036-.861.154-1.051.19-.19.584-.248 1.052-.154.668.133 1.394.546 2.001 1.136.044.064.11.158.202.26a1.466 1.466 0 002.551-1.054c-.006-.14-.019-.222-.02-.262 0-1.756.875-3.027 1.465-3.027.59 0 1.465 1.27 1.465 3.021-.002.043-.015.14-.021.268-.031.62.33 1.191.903 1.428.617.255 1.353.1 1.85-.634.608-.59 1.334-1.003 2.002-1.137.468-.093.86-.036 1.051.155.19.19.248.583.154 1.051-.133.668-.546 1.394-1.136 2.002-.722.49-.893 1.224-.634 1.85.236.572.808.935 1.428.903.124-.006.23-.02.262-.021 1.788 0 2.93.868 2.93 1.465 0 .597-1.142 1.465-2.924 1.465-.043-.002-.137-.014-.268-.02a1.465 1.465 0 00-1.428.903c-.258.624-.09 1.358.634 1.85.59.607 1.003 1.333 1.136 2 .094.47.037.863-.154 1.053-.19.19-.583.247-1.051.154-.668-.134-1.394-.547-2.002-1.137-.487-.718-1.22-.894-1.849-.634a1.466 1.466 0 00-.904 1.428zM5.957 13.281a1.465 1.465 0 102.93 0 4.4 4.4 0 014.394-4.394 1.465 1.465 0 100-2.93c-2.382 0-4.394-2.057-4.394-4.492a1.465 1.465 0 10-2.93 0c0 2.435-2.057 4.492-4.492 4.492a1.465 1.465 0 100 2.93c2.435 0 4.492 2.012 4.492 4.394zm1.447-7.407a7.612 7.612 0 001.507 1.533 7.394 7.394 0 00-1.504 1.504 7.617 7.617 0 00-1.533-1.507 7.777 7.777 0 001.53-1.53z" fill="#6AB9E0"/><path d="M32.324 13.281a4.4 4.4 0 00-4.394-4.394 4.4 4.4 0 00-4.395 4.394 4.4 4.4 0 004.395 4.395 4.4 4.4 0 004.394-4.395zm-4.394 1.465a1.467 1.467 0 01-1.465-1.465c0-.807.657-1.465 1.465-1.465.807 0 1.465.658 1.465 1.465 0 .808-.658 1.465-1.465 1.465zm20.176 18.462a4.3 4.3 0 00-1.207-3.74 4.3 4.3 0 00-3.748-1.205 4.3 4.3 0 00-3.503-1.798 4.3 4.3 0 00-3.502 1.798 4.3 4.3 0 00-3.748 1.205 4.3 4.3 0 00-1.206 3.748 4.3 4.3 0 00-1.797 3.503 4.3 4.3 0 001.797 3.502 4.299 4.299 0 001.206 3.748 4.3 4.3 0 003.748 1.205 4.3 4.3 0 003.502 1.799 4.3 4.3 0 003.503-1.799A4.3 4.3 0 0046.9 43.97a4.3 4.3 0 001.207-3.74c1.16-.812 1.894-2.114 1.894-3.51s-.734-2.698-1.894-3.511zm-2.198 4.871a1.466 1.466 0 00-.871 2.104c.263.486.301 1.204-.21 1.715-.51.51-1.23.472-1.714.209a1.466 1.466 0 00-2.104.871c-.157.53-.638 1.065-1.36 1.065-.723 0-1.204-.535-1.36-1.065a1.464 1.464 0 00-2.105-.871c-.486.263-1.204.301-1.715-.21-.51-.51-.472-1.228-.209-1.715a1.466 1.466 0 00-.871-2.103c-.53-.157-1.065-.638-1.065-1.36 0-.722.535-1.204 1.065-1.36a1.466 1.466 0 00.871-2.104c-.263-.486-.301-1.205.21-1.716.51-.51 1.229-.472 1.714-.209a1.465 1.465 0 002.104-.87c.157-.53.638-1.066 1.36-1.066.723 0 1.204.535 1.36 1.065a1.466 1.466 0 002.105.872c.485-.264 1.204-.302 1.715.209.51.51.472 1.229.209 1.715a1.466 1.466 0 00.871 2.103c.578.171 1.162.694 1.162 1.36 0 .668-.584 1.19-1.162 1.361z" fill="#6AB9E0"/><path d="M39.648 32.324a4.4 4.4 0 00-4.394 4.395 4.4 4.4 0 004.394 4.394 4.4 4.4 0 004.395-4.394 4.4 4.4 0 00-4.395-4.395zm0 5.86a1.467 1.467 0 01-1.464-1.465c0-.808.657-1.465 1.464-1.465.808 0 1.465.657 1.465 1.465 0 .807-.657 1.465-1.465 1.465zM46.97 22.07a1.465 1.465 0 11-2.93 0 1.465 1.465 0 012.93 0z" fill="#6AB9E0"/></svg>