<svg height="512" viewBox="0 0 64 64" width="512" xmlns="http://www.w3.org/2000/svg"><path d="M29 18h6a1 1 0 001-1V7a1 1 0 00-1-1h-6a1 1 0 00-1 1v10a1 1 0 001 1zm1-10h4v8h-4zm9 10h6a1 1 0 001-1V7a1 1 0 00-1-1h-6a1 1 0 00-1 1v10a1 1 0 001 1zm1-10h4v8h-4zM19 18h6a1 1 0 001-1V7a1 1 0 00-1-1h-6a1 1 0 00-1 1v10a1 1 0 001 1zm1-10h4v8h-4zm9 24h6a1 1 0 001-1V21a1 1 0 00-1-1h-6a1 1 0 00-1 1v10a1 1 0 001 1zm1-10h4v8h-4zm9 10h6a1 1 0 001-1V21a1 1 0 00-1-1h-6a1 1 0 00-1 1v10a1 1 0 001 1zm1-10h4v8h-4zM19 32h6a1 1 0 001-1V21a1 1 0 00-1-1h-6a1 1 0 00-1 1v10a1 1 0 001 1zm1-10h4v8h-4z"/><path d="M14 43.474V60c0 1.103.897 2 2 2h32c1.103 0 2-.897 2-2V45.724l1.858.265a.997.997 0 001.125-.811l2-10.999a1 1 0 00-.359-.961L50 29.52V4c0-1.103-.897-2-2-2H16c-1.103 0-2 .897-2 2v25.5l-3.6 2.7a1 1 0 00-.33 1.167zm11.36-1.249l-6.984 6.984L16 43.099V43h-.038l-3.017-7.759zM24 39.165l-4-2.25V36h4zM16 60v-3h32v3zm32-5H16v-6.384l1.068 2.746a1 1 0 001.639.345l8.42-8.42 11.318 7.545a1 1 0 001.263-.125l5.646-5.646 2.646.378zM34 38.883l-4 1.185V36h4zm17.188 4.991l-6.047-.864a.997.997 0 00-.849.283l-5.42 5.42-9.542-6.361 23.394-6.931zM40 37.105V36h3.729zm11.88-3.52l-1.88.557V32.08zM48 4v30.735l-2 .593V35a1 1 0 00-1-1h-6a1 1 0 00-1 1v2.698l-2 .593V35a1 1 0 00-1-1h-6a1 1 0 00-1 1v5.661l-.879.26L26 40.29V35a1 1 0 00-1-1h-6a1 1 0 00-1 1v.79l-2-1.125V4zM14 32v1.54l-1.173-.66z"/></svg>