<svg width="166" height="65" fill="none" xmlns="http://www.w3.org/2000/svg"><path d="M94.723 27.758v7.712h2.565v-7.712h1.91v7.712h2.539v-7.712h1.905V37h-10.83v-9.242h1.911zm18.161 4.83c0 .91-.161 1.708-.483 2.393-.321.686-.783 1.215-1.383 1.587-.597.373-1.283.559-2.057.559-.766 0-1.449-.184-2.05-.552-.601-.369-1.067-.893-1.397-1.575-.33-.685-.497-1.472-.501-2.36v-.458c0-.91.163-1.71.488-2.4.331-.693.794-1.224 1.391-1.593.601-.372 1.286-.558 2.056-.558s1.454.186 2.051.558c.6.369 1.064.9 1.39 1.594.33.69.495 1.487.495 2.393v.412zm-1.93-.419c0-.969-.173-1.705-.52-2.209-.347-.503-.843-.755-1.486-.755-.639 0-1.132.25-1.479.75-.347.494-.522 1.222-.527 2.183v.45c0 .944.174 1.676.521 2.197.347.52.846.78 1.498.78.639 0 1.13-.25 1.473-.749.342-.503.516-1.235.52-2.196v-.45zm6.329 1.054h-1.098V37h-1.905v-9.242h1.905v3.7h.869l2.26-3.7h2.323l-2.85 4.373L121.936 37h-2.273l-2.38-3.777zm12.778-.635c0 .91-.161 1.708-.483 2.393-.321.686-.783 1.215-1.384 1.587-.596.373-1.282.559-2.056.559-.766 0-1.45-.184-2.051-.552-.601-.369-1.066-.893-1.396-1.575-.33-.685-.497-1.472-.502-2.36v-.458c0-.91.163-1.71.489-2.4.33-.693.794-1.224 1.39-1.593.601-.372 1.287-.558 2.057-.558s1.454.186 2.05.558c.601.369 1.065.9 1.39 1.594.331.69.496 1.487.496 2.393v.412zm-1.93-.419c0-.969-.174-1.705-.521-2.209-.347-.503-.842-.755-1.485-.755-.639 0-1.132.25-1.479.75-.347.494-.523 1.222-.527 2.183v.45c0 .944.174 1.676.521 2.197.347.52.846.78 1.498.78.639 0 1.13-.25 1.472-.749.343-.503.517-1.235.521-2.196v-.45zm10.626-4.411V37h-1.911v-7.7h-2.463l-.152 3.263c-.064 1.1-.203 1.968-.419 2.602-.216.631-.531 1.094-.946 1.39-.415.293-.982.44-1.701.445h-.495v-1.53l.317-.032c.478-.063.819-.338 1.022-.825.208-.49.339-1.362.394-2.615l.159-4.24h6.195zm6.995 7.338h-3.339L141.778 37h-2.025l3.441-9.242h1.764l3.46 9.242h-2.025l-.641-1.904zm-2.825-1.543h2.311l-1.162-3.46-1.149 3.46zm11.896-5.795h1.91V37h-1.91v-6.138L151.122 37h-1.904v-9.242h1.904v6.15l3.701-6.15zm.368-2.431c0 .563-.203 1.017-.609 1.364-.402.347-.931.52-1.587.52-.656 0-1.187-.17-1.594-.513-.402-.343-.603-.8-.603-1.371h1.302c0 .266.078.474.234.622.161.144.381.216.661.216.275 0 .491-.072.647-.216.157-.148.235-.356.235-.622h1.314zm10.15 3.973h-2.831V37h-1.905v-7.7h-2.793v-1.542h7.529V29.3zm-99.374 2.842c0-22.881-23.79-38.256-45.34-29.783-1.148.446-1.586 1.848-.839 2.847.245.327.956.752.956 1.84 0 .903-.59 1.71-1.466 2.01-1.195.408-1.667 1.804-.964 2.82.241.35.368.758.368 1.182 0 1.711-1.973 2.706-3.406 1.771-1.047-.685-2.482-.222-2.9.937-.309.853-1.14 1.425-2.069 1.425-.917 0-1.744-.562-2.058-1.399a1.93 1.93 0 00-1.626-1.226c-.763-.075-1.496.311-1.857.92A31.345 31.345 0 000 32.096c0 17.722 14.752 32.065 32.984 32.065 18.034 0 32.954-14.15 32.983-32.013v-.006zM15.012 18.767c4.414 1.079 8.473-2.816 7.353-7.148 2.03-1.602 2.736-4.237 1.895-6.538 18.36-5.606 37.122 7.418 37.82 25.966-3.911 2.166-7.965 2.801-12.066 1.887a17.198 17.198 0 01-4.837-1.88c-.545-6.075-5.805-10.857-12.193-10.857-6.371 0-11.62 4.757-12.188 10.81-3.934 2.198-8.014 2.847-12.14 1.927a17.236 17.236 0 01-4.77-1.84 27.645 27.645 0 012.856-11.278c2.604 1.839 6.226 1.398 8.27-1.049zm26.347 13.33c0 4.489-3.757 8.14-8.375 8.14s-8.375-3.651-8.375-8.14c0-4.49 3.757-8.142 8.375-8.142s8.375 3.652 8.375 8.141zm-8.375 28.306c-14.908 0-27.233-10.948-28.92-25.008 5.404 2.307 11.41 2.308 17.069-.32 1.363 5.125 6.16 8.92 11.851 8.92 5.672 0 10.455-3.77 11.837-8.868 5.293 2.457 11.338 2.69 17.09.209-1.66 14.088-13.998 25.068-28.927 25.068z" fill="#3F2626"/></svg>