<svg width="164" height="65" fill="none" xmlns="http://www.w3.org/2000/svg"><path d="M92.723 28.035v7.712h2.565v-7.712h1.91v7.712h2.54v-7.712h1.904v9.242h-10.83v-9.242h1.911zm18.161 4.83c0 .91-.161 1.708-.483 2.393-.321.686-.783 1.215-1.383 1.587-.597.372-1.283.559-2.057.559-.766 0-1.449-.184-2.05-.553-.601-.368-1.067-.892-1.397-1.574-.33-.685-.497-1.473-.501-2.361v-.457c0-.91.163-1.71.488-2.4.331-.694.794-1.225 1.391-1.593.601-.372 1.286-.559 2.056-.559s1.454.187 2.051.56c.6.367 1.064.898 1.39 1.592.33.69.495 1.488.495 2.393v.413zm-1.93-.419c0-.969-.173-1.705-.52-2.209-.347-.503-.843-.755-1.486-.755-.639 0-1.132.25-1.479.749-.347.495-.522 1.223-.527 2.183v.451c0 .944.174 1.676.521 2.196.347.52.846.781 1.498.781.639 0 1.13-.25 1.473-.749.342-.504.516-1.236.52-2.196v-.45zm6.329 1.054h-1.098v3.777h-1.905v-9.242h1.905v3.7h.869l2.26-3.7h2.323l-2.85 4.373 3.149 4.869h-2.273l-2.38-3.777zm12.778-.635c0 .91-.161 1.708-.483 2.393-.321.686-.783 1.215-1.384 1.587-.596.372-1.282.559-2.056.559-.766 0-1.45-.184-2.051-.553-.601-.368-1.066-.892-1.396-1.574-.33-.685-.497-1.473-.502-2.361v-.457c0-.91.163-1.71.489-2.4.33-.694.794-1.225 1.39-1.593.601-.372 1.287-.559 2.057-.559s1.454.187 2.05.56c.601.367 1.065.898 1.39 1.592.331.69.496 1.488.496 2.393v.413zm-1.93-.419c0-.969-.174-1.705-.521-2.209-.347-.503-.842-.755-1.485-.755-.639 0-1.132.25-1.479.749-.347.495-.523 1.223-.527 2.183v.451c0 .944.174 1.676.521 2.196.347.52.846.781 1.498.781.639 0 1.13-.25 1.472-.749.343-.504.517-1.236.521-2.196v-.45zm10.626-4.411v9.242h-1.911v-7.7h-2.463l-.152 3.263c-.064 1.1-.203 1.967-.419 2.602-.216.63-.531 1.094-.946 1.39-.415.292-.982.44-1.701.445h-.495v-1.53l.317-.032c.478-.063.819-.338 1.022-.825.208-.49.339-1.363.394-2.615l.159-4.24h6.195zm6.995 7.337h-3.339l-.635 1.905h-2.025l3.441-9.242h1.764l3.46 9.242h-2.025l-.641-1.905zm-2.825-1.542h2.311l-1.162-3.46-1.149 3.46zm11.896-5.795h1.91v9.242h-1.91v-6.139l-3.701 6.139h-1.904v-9.242h1.904v6.15l3.701-6.15zm.368-2.432c0 .563-.203 1.018-.609 1.365-.402.347-.931.52-1.587.52-.656 0-1.187-.17-1.594-.514-.402-.342-.603-.8-.603-1.37h1.302c0 .266.078.473.234.621.161.144.381.216.661.216.275 0 .491-.072.647-.216.157-.148.235-.355.235-.622h1.314zm10.15 3.974h-2.831v7.7h-1.905v-7.7h-2.793v-1.543h7.529v1.543z" fill="#fff"/><path d="M65.967 32.32c0-22.881-23.79-38.257-45.34-29.783-1.148.446-1.586 1.848-.839 2.847.245.327.956.752.956 1.84 0 .902-.59 1.71-1.466 2.01-1.195.408-1.667 1.804-.964 2.82.241.35.368.758.368 1.182 0 1.711-1.973 2.706-3.406 1.771-1.047-.685-2.482-.223-2.9.937-.309.853-1.14 1.425-2.069 1.425-.917 0-1.744-.562-2.058-1.399a1.93 1.93 0 00-1.626-1.226c-.763-.075-1.496.311-1.857.92A31.346 31.346 0 000 32.273C0 49.995 14.752 64.34 32.984 64.34c18.034 0 32.954-14.15 32.983-32.013v-.006zM15.012 18.945c4.414 1.079 8.473-2.816 7.353-7.148 2.03-1.603 2.736-4.237 1.895-6.538 18.36-5.606 37.122 7.418 37.82 25.966-3.911 2.166-7.965 2.8-12.066 1.887a17.2 17.2 0 01-4.837-1.88c-.545-6.075-5.805-10.857-12.193-10.857-6.371 0-11.62 4.757-12.188 10.81-3.934 2.198-8.014 2.847-12.14 1.927a17.236 17.236 0 01-4.77-1.84 27.645 27.645 0 012.856-11.279c2.604 1.84 6.226 1.4 8.27-1.048zm26.347 13.33c0 4.488-3.757 8.14-8.375 8.14s-8.375-3.652-8.375-8.14c0-4.49 3.757-8.142 8.375-8.142s8.375 3.652 8.375 8.141zM32.984 60.58c-14.908 0-27.233-10.948-28.92-25.009 5.404 2.308 11.41 2.31 17.069-.319 1.363 5.124 6.16 8.92 11.851 8.92 5.672 0 10.455-3.77 11.837-8.868 5.293 2.457 11.338 2.69 17.09.209C60.25 49.602 47.913 60.58 32.984 60.58z" fill="#FFFDFD"/></svg>