<svg width="41" height="40" fill="none" xmlns="http://www.w3.org/2000/svg"><rect x="1.204" y=".99" width="38.437" height="38.437" rx="3.5" stroke="#3F2626"/><g clip-path="url(#clip0)"><path d="M17.976 23.85l-.42 5.898c.6 0 .86-.257 1.172-.567l2.813-2.688 5.828 4.268c1.07.596 1.823.282 2.111-.983l3.826-17.928.001-.001c.34-1.58-.571-2.198-1.613-1.81l-22.49 8.61c-1.534.595-1.51 1.45-.26 1.838l5.75 1.789 13.355-8.357c.628-.416 1.2-.186.73.23l-10.803 9.7z" fill="#3F2626"/></g><defs><clipPath id="clip0"><path fill="#fff" transform="translate(8.028 7.813)" d="M0 0h25.352v25.352H0z"/></clipPath></defs></svg>