<svg width="40" height="40" fill="none" xmlns="http://www.w3.org/2000/svg"><rect x=".612" y=".553" width="38.437" height="38.437" rx="3.5" stroke="#3F2626"/><g clip-path="url(#clip0)"><path d="M32.788 12.192c-.942.414-1.947.688-2.994.821a5.168 5.168 0 002.286-2.873 10.387 10.387 0 01-3.296 1.258 5.196 5.196 0 00-8.99 3.554c0 .412.035.809.12 1.186-4.32-.211-8.144-2.282-10.713-5.437a5.233 5.233 0 00-.711 2.627c0 1.8.927 3.396 2.309 4.32a5.133 5.133 0 01-2.349-.64v.057a5.221 5.221 0 004.165 5.106 5.187 5.187 0 01-1.363.172c-.333 0-.669-.02-.984-.09.673 2.06 2.584 3.572 4.856 3.621a10.443 10.443 0 01-6.444 2.217c-.426 0-.835-.019-1.244-.071a14.632 14.632 0 007.974 2.332c9.564 0 14.793-7.922 14.793-14.79 0-.23-.008-.451-.02-.671a10.368 10.368 0 002.605-2.699z" fill="#3F2626"/></g><defs><clipPath id="clip0"><path fill="#fff" transform="translate(7.436 7.377)" d="M0 0h25.352v25.352H0z"/></clipPath></defs></svg>