<svg width="40" height="40" fill="none" xmlns="http://www.w3.org/2000/svg"><rect x=".908" y=".99" width="38.437" height="38.437" rx="3.5" stroke="#3F2626"/><g clip-path="url(#clip0)"><path d="M20.13 8.94h-.006c-6.213 0-11.265 5.054-11.265 11.268 0 2.465.794 4.75 2.145 6.604L9.6 30.998l4.33-1.385a11.17 11.17 0 006.2 1.862c6.212 0 11.264-5.055 11.264-11.267 0-6.213-5.052-11.268-11.265-11.268zm6.556 15.911c-.272.768-1.351 1.405-2.212 1.59-.588.126-1.357.226-3.946-.847-3.311-1.372-5.444-4.737-5.61-4.955-.159-.219-1.338-1.782-1.338-3.399s.821-2.404 1.152-2.742c.272-.277.721-.404 1.152-.404.14 0 .265.007.378.012.33.014.497.034.715.557.272.655.934 2.271 1.013 2.438.08.166.16.391.048.61-.106.225-.199.325-.365.517-.166.191-.324.337-.49.543-.152.179-.324.37-.133.702.192.324.854 1.404 1.829 2.271 1.258 1.12 2.277 1.478 2.642 1.63.272.113.596.086.794-.125.252-.272.564-.723.88-1.167.226-.318.51-.357.81-.245.303.106 1.913.902 2.244 1.067.331.166.55.245.63.384.079.14.079.794-.193 1.563z" fill="#3F2626"/></g><defs><clipPath id="clip0"><path fill="#fff" transform="translate(8.859 8.94)" d="M0 0h22.535v22.535H0z"/></clipPath></defs></svg>