<svg width="55" height="55" viewBox="0 0 55 55" fill="none" xmlns="http://www.w3.org/2000/svg">
<g clip-path="url(#clip0)">
<path d="M29.6323 12.2944L27.218 9.88011C24.2407 6.90162 19.3949 6.90227 16.4171 9.88011L9.88066 16.4165C6.90282 19.3944 6.90282 24.2402 9.88066 27.2181L12.295 29.6324C13.7836 31.1211 15.7399 31.8659 17.6955 31.8659C19.6518 31.8659 21.6074 31.1216 23.096 29.6318L29.6324 23.0954C32.6102 20.1175 32.6102 15.2724 29.6323 12.2944ZM27.1343 20.598L20.5979 27.1344C18.9973 28.7344 16.394 28.735 14.7928 27.1344L12.3785 24.7201C10.7786 23.1195 10.7786 20.5156 12.3785 18.915L18.9149 12.3786C19.7152 11.579 20.7664 11.1785 21.8175 11.1785C22.8686 11.1785 23.9197 11.579 24.72 12.3786L27.1343 14.7929C28.7343 16.3935 28.7343 18.9974 27.1343 20.598Z" fill="#4DBCF2"/>
<path d="M38.9952 9.70395L29.8089 0.517666C29.4779 0.186055 29.0287 0 28.5599 0C28.0911 0 27.6419 0.186055 27.3109 0.517559L25.8977 1.9308C24.3395 3.48896 23.481 5.56413 23.481 7.77294C23.481 9.98175 24.3395 12.0569 25.8977 13.6151C27.5083 15.2257 29.624 16.0312 31.7398 16.0312C33.8556 16.0312 35.972 15.2257 37.5825 13.6151L38.9952 12.2018C39.6854 11.5123 39.6854 10.3935 38.9952 9.70395ZM35.084 11.1166C33.2408 12.9603 30.24 12.9609 28.3962 11.1166C27.5047 10.2261 27.0141 9.03848 27.0141 7.77294C27.0141 6.5074 27.5046 5.31975 28.3962 4.42879L28.5599 4.26508L35.2477 10.9522L35.084 11.1166Z" fill="#4DBCF2"/>
<path d="M13.6157 25.8977C10.3952 22.6767 5.15309 22.676 1.93087 25.8977L0.517517 27.311C-0.172668 28.0011 -0.172668 29.1194 0.517517 29.8089L9.70381 38.9952C10.0483 39.3403 10.5006 39.5128 10.9528 39.5128C11.405 39.5128 11.8568 39.3403 12.2023 38.9952L13.6156 37.5825C16.8368 34.3615 16.8374 29.1199 13.6157 25.8977ZM11.1172 35.084L10.9529 35.2477L4.26514 28.56L4.42939 28.3957C6.27318 26.5519 9.27337 26.5519 11.1172 28.3957C12.9608 30.2394 12.9608 33.2403 11.1172 35.084Z" fill="#4DBCF2"/>
<path d="M30.3978 9.11505C29.7076 8.42487 28.59 8.42487 27.8998 9.11505L25.9566 11.0583C25.2664 11.7479 25.2664 12.8668 25.9566 13.5563C26.3011 13.9013 26.7533 14.074 27.2056 14.074C27.6578 14.074 28.1095 13.9015 28.4546 13.5563L30.3978 11.613C31.088 10.9234 31.088 9.80459 30.3978 9.11505Z" fill="#4DBCF2"/>
<path d="M13.4385 26.0743C12.7483 25.3847 11.63 25.3847 10.9399 26.0743L9.11442 27.8998C8.42487 28.5894 8.42487 29.7076 9.11442 30.3978C9.45945 30.7428 9.9117 30.9155 10.3639 30.9155C10.8162 30.9155 11.2679 30.743 11.6129 30.3978L13.4385 28.5723C14.128 27.8826 14.1287 26.7638 13.4385 26.0743Z" fill="#4DBCF2"/>
<path d="M45.12 27.7815L42.7057 25.3672C39.7284 22.3893 34.8826 22.3887 31.9041 25.3672L25.3677 31.9036C22.3892 34.8814 22.3892 39.7272 25.3677 42.7052L27.782 45.1195C29.2706 46.6087 31.2268 47.353 33.1825 47.353C35.1388 47.353 37.0944 46.6087 38.5836 45.1195L45.12 38.5831C48.0985 35.6052 48.0985 30.7594 45.12 27.7815ZM42.6215 36.0851L36.0851 42.6215C34.4851 44.2209 31.8818 44.2221 30.28 42.6215L27.8657 40.2072C26.2651 38.6072 26.2651 36.0027 27.8657 34.4021L34.4021 27.8657C35.2029 27.0654 36.254 26.6656 37.3046 26.6656C38.3557 26.6656 39.4069 27.0654 40.2072 27.8657L42.6215 30.28C44.2221 31.88 44.2221 34.4846 42.6215 36.0851Z" fill="#4DBCF2"/>
<path d="M54.4825 25.1905L45.2955 16.0042C44.633 15.3417 43.4595 15.3417 42.797 16.0042L41.3849 17.4174C39.8268 18.9756 38.9683 21.0501 38.9683 23.2596C38.9683 25.469 39.8268 27.5435 41.3849 29.1017C42.9955 30.7128 45.1106 31.5184 47.2271 31.5184C49.3429 31.5184 51.4593 30.7128 53.0692 29.1022L54.4825 27.6895C54.814 27.358 55 26.9087 55 26.44C55 25.9713 54.814 25.5221 54.4825 25.1905ZM50.5711 26.6038C48.728 28.4476 45.7271 28.4481 43.8834 26.6038C42.9919 25.7135 42.5013 24.5257 42.5013 23.2602C42.5013 21.9947 42.9918 20.807 43.8839 19.9161L44.047 19.7523L50.7347 26.4395L50.5711 26.6038Z" fill="#4DBCF2"/>
<path d="M29.1023 41.3847C27.5441 39.8265 25.4696 38.968 23.2602 38.968C21.0507 38.968 18.9762 39.8265 17.418 41.3847L16.0048 42.7974C15.6733 43.1284 15.4872 43.5782 15.4872 44.0469C15.4872 44.5156 15.6733 44.9644 16.0042 45.2953L25.1905 54.4822C25.522 54.8137 25.9719 54.9998 26.4401 54.9998C26.9088 54.9998 27.3581 54.8137 27.6896 54.4822L29.1023 53.069C32.324 49.8473 32.324 44.6064 29.1023 41.3847ZM26.6038 50.571L26.4401 50.7347L19.7523 44.0469L19.916 43.8832C20.8064 42.9917 21.9941 42.5011 23.2596 42.5011C24.5252 42.5011 25.7128 42.9916 26.6038 43.8832C28.4474 45.727 28.4474 48.7267 26.6038 50.571Z" fill="#4DBCF2"/>
<path d="M45.8849 24.6021C45.1948 23.9126 44.076 23.9119 43.387 24.6021L41.4437 26.5454C40.7535 27.2356 40.7535 28.3538 41.4437 29.0434C41.7887 29.3884 42.2404 29.5609 42.6927 29.5609C43.1449 29.5609 43.5972 29.3884 43.9417 29.0439L45.8849 27.1006C46.5751 26.4106 46.5751 25.2917 45.8849 24.6021Z" fill="#4DBCF2"/>
<path d="M28.9251 41.5616C28.2361 40.8714 27.1173 40.8714 26.4271 41.5616L24.6015 43.3871C23.912 44.0767 23.912 45.1949 24.6015 45.8851C24.9466 46.2301 25.3988 46.4027 25.8511 46.4027C26.3033 46.4027 26.755 46.2301 27.0994 45.8851L28.925 44.0596C29.6153 43.37 29.6152 42.2518 28.9251 41.5616Z" fill="#4DBCF2"/>
</g>
<defs>
<clipPath id="clip0">
<rect width="55" height="55" fill="white"/>
</clipPath>
</defs>
</svg>
