<svg width="50" height="50" viewBox="0 0 50 50" fill="none" xmlns="http://www.w3.org/2000/svg">
<g opacity="0.8" clip-path="url(#clip0)">
<path d="M40.5953 14.7772H35.7933C38.1556 7.65234 32.6776 0.042155 25.1745 0.00293831C17.5138 -0.172119 11.8395 7.50575 14.2388 14.7772H9.43628C6.07802 14.7772 3.34576 17.5094 3.34576 20.8677C3.34576 24.2259 6.07802 26.9582 9.43628 26.9582H13.9158L11.3966 42.6902C10.7532 46.4821 13.8079 50.0392 17.6467 49.9996C20.4811 49.9995 23.0014 48.1024 23.7352 45.2707L25.0157 40.3295L26.2961 45.2707C27.03 48.1026 29.5499 49.9998 32.3848 49.9996C36.2234 50.0386 39.2783 46.4825 38.6347 42.6902L36.1157 26.9582H40.5952C48.6757 26.6235 48.6722 15.1102 40.5953 14.7772ZM6.27978 20.8677C6.27978 19.1271 7.69579 17.7111 9.43638 17.7111H9.9551V24.0244H9.43638C7.69579 24.0243 6.27978 22.6083 6.27978 20.8677ZM17.0934 47.0214C15.1241 46.7157 13.8838 44.756 14.3445 42.837H21.3352L20.8952 44.5348C20.4562 46.229 18.8224 47.2989 17.0934 47.0214ZM35.1389 45.6676C33.4913 47.9688 29.8281 47.2892 29.1364 44.5348L28.6964 42.837H35.687C35.9019 43.8201 35.744 44.8503 35.1389 45.6676ZM35.2173 39.9031H27.9362L26.1656 33.0705H23.8662L22.0955 39.9031H14.8143L17.3571 24.0244H12.889V17.7111H19.0272C17.7965 15.5844 16.6012 13.9142 16.6327 11.319C16.5378 6.77021 20.5832 2.77324 25.1344 2.93666C29.4867 2.90908 33.3717 6.74371 33.3962 11.0968C33.4913 13.8092 32.2905 15.4982 31.0047 17.711H37.6318V24.0243H32.6748L35.2173 39.9031ZM40.5953 24.0243H40.5655V17.7111C44.7747 17.8508 44.8006 23.8465 40.5953 24.0243Z" fill="#45B0E4"/>
<path d="M22.962 26.0159H27.0695V28.9498H22.962V26.0159Z" fill="#45B0E4"/>
<path d="M22.962 20.1482H27.0695V23.0821H22.962V20.1482Z" fill="#45B0E4"/>
<path d="M25.0158 12.8134C24.2069 12.8134 23.5488 12.1553 23.5488 11.3464H20.6149C20.8574 17.1862 29.1765 17.1817 29.4167 11.3464H26.4828C26.4828 12.1553 25.8247 12.8134 25.0158 12.8134Z" fill="#45B0E4"/>
</g>
<defs>
<clipPath id="clip0">
<rect width="50" height="50" fill="white"/>
</clipPath>
</defs>
</svg>
